<svg width="78" height="69" viewBox="0 0 78 69" fill="none" xmlns="http://www.w3.org/2000/svg">
<g clip-path="url(#clip0_13_20)">
<path d="M8.5 48C9 48.5 9.7 48.8 10.4 48.8C11.1 48.8 11.8 48.5 12.3 48L14 46.3V66.4C14 67.1 14.3 67.8 14.8 68.3C15.3 68.8 16 69.1 16.7 69.1H61.1C61.8 69.1 62.5 68.8 63 68.3C63.5 67.8 63.8 67.1 63.8 66.4V46.3L65.5 48C66 48.5 66.7 48.8 67.4 48.8C68.1 48.8 68.8 48.5 69.3 48L77 40.4C77.5 39.9 77.8 39.2 77.8 38.5C77.8 37.8 77.5 37.1 77 36.6L63.8 23.4V6.2C63.8 5.5 63.5 4.8 63 4.3C62.5 3.8 61.8 3.5 61.1 3.5H52.7C52 3.5 51.3 3.8 50.8 4.3C50.3 4.8 50 5.5 50 6.2V9.7L40.9 0.7C40.4 0.3 39.7 0 39 0C38.3 0 37.6 0.3 37.1 0.8L0.8 36.6C0.3 37.1 0 37.8 0 38.5C0 39.2 0.3 39.9 0.8 40.4L8.5 48ZM55.5 8.9H58.4V18L55.5 15.1V8.9ZM39 6.4L71.4 38.4L67.6 42.2L63.2 37.8C62.8 37.4 62.3 37.2 61.8 37.1C61.3 37 60.7 37 60.2 37.3C59.7 37.5 59.3 37.8 59 38.3C58.7 38.7 58.5 39.3 58.5 39.8V63.7H19.5V39.8C19.5 39.3 19.3 38.8 19 38.3C18.7 37.9 18.3 37.5 17.8 37.3C17.3 37.1 16.8 37 16.2 37.1C15.7 37.2 15.2 37.5 14.8 37.8L10.4 42.2L6.6 38.4L39 6.4Z" fill="white"/>
<path d="M32.6 56.4H45.3C46 56.4 46.7 56.1 47.2 55.6C47.7 55.1 48 54.4 48 53.7V41.2C48 40.5 47.7 39.8 47.2 39.3C46.7 38.8 46 38.5 45.3 38.5H32.6C31.9 38.5 31.2 38.8 30.7 39.3C30.2 39.8 29.9 40.5 29.9 41.2V53.8C29.9 54.5 30.2 55.2 30.7 55.7C31.2 56.1 31.9 56.4 32.6 56.4ZM35.4 43.8H42.7V51H35.4V43.8Z" fill="white"/>
</g>
<defs>
<clipPath id="clip0_13_20">
<rect width="78" height="69" fill="white"/>
</clipPath>
</defs>
</svg>
